# xmcd
#
# Track frame offsets: 
#        150
#        18381
#        36282
#        63379
#        81774
#        97876
#        117623
#        134075
#        150952
#        170335
#        183526
#        199207
#        214461
#        232293
#
# Disc length: 3294 seconds
#
# Revision: 3
# Processed by: cddbd v1.5.2PL0 Copyright (c) Steve Scherf et al.
# Submitted via: ExactAudioCopy v1.0b4
#
DISCID=cb0cdc0e
DTITLE=John Campbelljohn - Nerves Of Steel
DYEAR=2002
DGENRE=Blues, Delta Blues, Electric Blues
TTITLE0=No Philosopher
TTITLE1=I'd Rather Be Rich Than Famous
TTITLE2=Guilt Trip
TTITLE3=Put Your Breaks On
TTITLE4=Do The Right Thing
TTITLE5=Do Onto Me
TTITLE6=Don't You Get Your Fingers Dirty
TTITLE7=Nerves Of Steel
TTITLE8=I'll Be Watching You
TTITLE9=Honey, I've Had My Fill
TTITLE10=Let's Get Twisted
TTITLE11=Take It Out In The Street
TTITLE12=Punching Bag
TTITLE13=Nobody's Business
EXTD=YEAR:2000 (Herman's)
EXTT0=
EXTT1=
EXTT2=
EXTT3=
EXTT4=
EXTT5=
EXTT6=
EXTT7=
EXTT8=
EXTT9=
EXTT10=
EXTT11=
EXTT12=
EXTT13=
PLAYORDER=
